<svg width="36" height="36" viewBox="0 0 36 36" fill="none" xmlns="http://www.w3.org/2000/svg">
<g clip-path="url(#clip0_1_130)">
<path d="M10.5 28.5C12.1569 28.5 13.5 27.1569 13.5 25.5C13.5 23.8431 12.1569 22.5 10.5 22.5C8.84315 22.5 7.5 23.8431 7.5 25.5C7.5 27.1569 8.84315 28.5 10.5 28.5Z" stroke="#2A7EFC" stroke-width="1.5" stroke-linecap="round" stroke-linejoin="round"/>
<path d="M25.5 28.5C27.1569 28.5 28.5 27.1569 28.5 25.5C28.5 23.8431 27.1569 22.5 25.5 22.5C23.8431 22.5 22.5 23.8431 22.5 25.5C22.5 27.1569 23.8431 28.5 25.5 28.5Z" stroke="#2A7EFC" stroke-width="1.5" stroke-linecap="round" stroke-linejoin="round"/>
<path d="M7.5 25.5H4.5V9C4.5 8.60218 4.65804 8.22064 4.93934 7.93934C5.22064 7.65804 5.60218 7.5 6 7.5H19.5V25.5M13.5 25.5H22.5M28.5 25.5H31.5V16.5H19.5M19.5 9H27L31.5 16.5" stroke="#2A7EFC" stroke-width="1.5" stroke-linecap="round" stroke-linejoin="round"/>
<path d="M9 15H15M12 12V18" stroke="#2A7EFC" stroke-width="1.5" stroke-linecap="round" stroke-linejoin="round"/>
</g>
<defs>
<clipPath id="clip0_1_130">
<rect width="36" height="36" fill="white"/>
</clipPath>
</defs>
</svg>
