<svg width="24" height="24" viewBox="0 0 24 24" fill="none" xmlns="http://www.w3.org/2000/svg">
<path d="M12 22C13.1 22 14 21.1 14 20V19L9.99998 19.0005L9.99999 20C9.99999 20.5304 10.2107 21.0391 10.5858 21.4142C10.9609 21.7893 11.4696 22 12 22ZM18 16V11C18 7.92997 16.36 5.35997 13.5 4.67997V3.99997C13.5 3.16997 12.83 2.49997 12 2.49997C11.17 2.49997 10.5 3.16997 10.5 3.99997V4.67997C7.62999 5.35997 5.99999 7.91997 5.99999 11V16L4.70999 17.29C4.07999 17.92 4.51999 19 5.40999 19H18.58C19.47 19 19.92 17.92 19.29 17.29L18 16Z" stroke="#1D1E25" stroke-width="1.5"/>
</svg>
